<?xml version="1.0" encoding="UTF-8" standalone="no"?><!DOCTYPE svg PUBLIC "-//W3C//DTD SVG 1.1//EN" "http://www.w3.org/Graphics/SVG/1.1/DTD/svg11.dtd"><svg width="100%" height="100%" viewBox="0 0 120 120" version="1.1" xmlns="http://www.w3.org/2000/svg" xmlns:xlink="http://www.w3.org/1999/xlink" xml:space="preserve" xmlns:serif="http://www.serif.com/" style="fill-rule:evenodd;clip-rule:evenodd;stroke-linejoin:round;stroke-miterlimit:1.41421;"><rect x="18.947" y="21.786" width="83.01" height="76.002" style="fill:#cb81da;"/><g><path d="M57.357,0.021c-0.241,0.018 -1.09,0.071 -1.876,0.125c-10.418,0.706 -21.059,4.485 -29.752,10.56c-9.971,6.978 -17.556,16.672 -21.854,27.921c-2.028,5.334 -3.279,10.918 -3.761,16.868c-0.152,1.85 -0.152,7.175 0,9.024c0.813,9.98 3.77,18.977 9.015,27.384c3.958,6.344 9.47,12.249 15.582,16.672c9.113,6.603 19.405,10.391 30.77,11.311c1.849,0.152 7.174,0.152 9.024,0c14.59,-1.188 27.697,-7.21 37.927,-17.44c5.807,-5.79 10.275,-12.571 13.33,-20.192c2.234,-5.557 3.601,-11.463 4.11,-17.735c0.152,-1.849 0.152,-7.174 0,-9.024c-1.188,-14.59 -7.21,-27.697 -17.44,-37.927c-5.79,-5.807 -12.571,-10.275 -20.192,-13.33c-5.504,-2.207 -11.409,-3.583 -17.556,-4.092c-1.171,-0.098 -6.496,-0.188 -7.327,-0.125Zm-10.328,23.846c1.662,0.348 3.797,1.295 5.584,2.457c1.322,0.867 3.047,2.189 3.333,2.564c0.277,0.358 0.375,1.054 0.205,1.456c-0.161,0.376 -0.741,0.876 -1.108,0.948c-0.572,0.107 -0.902,-0.027 -1.813,-0.751c-2.082,-1.626 -4.066,-2.788 -5.808,-3.386c-0.929,-0.322 -1.009,-0.34 -2.216,-0.34c-1.25,0 -1.259,0 -1.876,0.304c-1.537,0.751 -2.519,2.502 -3.038,5.37c-0.196,1.134 -0.277,4.226 -0.143,5.852c0.134,1.59 0.474,3.994 0.813,5.655c0.143,0.706 0.277,1.305 0.295,1.323c0.018,0.018 0.268,-0.009 0.563,-0.054c1.903,-0.313 5.79,-0.679 9.113,-0.858l1.081,-0.053l1.162,-1.448c2.653,-3.287 6.603,-7.469 9.202,-9.729c4.941,-4.298 9.444,-6.898 13.206,-7.621c1.17,-0.233 3.073,-0.206 4.02,0.044c4.119,1.09 6.245,5.227 5.852,11.41c-0.152,2.34 -0.5,4.583 -0.786,5.074c-0.491,0.849 -1.689,0.992 -2.394,0.286c-0.474,-0.473 -0.51,-0.777 -0.259,-2.323c0.58,-3.609 0.536,-6.272 -0.143,-8.309c-0.751,-2.242 -2.1,-3.27 -4.289,-3.27c-4.968,0 -12.741,5.486 -20.353,14.367c-0.643,0.741 -1.17,1.394 -1.17,1.429c0,0.045 1.036,0.108 2.305,0.134c13.688,0.349 27.188,3.547 34.773,8.238c2.019,1.26 4.128,3.109 5.119,4.521c0.528,0.742 1.064,1.814 1.314,2.627c0.268,0.866 0.339,2.358 0.143,3.288c-0.688,3.332 -3.851,6.263 -9.087,8.443c-1.09,0.446 -1.268,0.491 -1.688,0.375c-0.706,-0.188 -1.162,-0.768 -1.162,-1.474c0,-0.778 0.411,-1.233 1.474,-1.653c1.859,-0.733 3.905,-1.903 5.2,-2.966c1.591,-1.314 2.484,-3.011 2.314,-4.396c-0.232,-2.01 -2.055,-4.164 -5.155,-6.094c-5.95,-3.698 -15.912,-6.45 -26.884,-7.442c-3.189,-0.295 -4.565,-0.366 -7.96,-0.429l-3.19,-0.053l-0.751,1.018c-2.162,2.931 -4.226,6.102 -6.146,9.417c-0.965,1.671 -0.983,1.206 0.142,3.69c1.725,3.779 4.244,8.488 6.38,11.901c7.415,11.865 16.153,19.897 21.621,19.861c1.34,-0.009 2.189,-0.393 3.074,-1.376c1.93,-2.144 2.475,-7.406 1.438,-13.812c-1.001,-6.156 -3.315,-13.286 -6.683,-20.532c-0.679,-1.465 -0.724,-1.635 -0.598,-2.1c0.312,-1.161 1.778,-1.563 2.564,-0.705c0.223,0.241 1.072,1.992 1.956,4.038c5.2,11.999 7.371,23.06 5.915,30.118c-0.456,2.243 -1.385,4.155 -2.609,5.379c-5.611,5.611 -16.109,-0.349 -26.517,-15.064c-3.074,-4.351 -6.38,-10.096 -8.837,-15.367l-0.518,-1.108l-0.715,1.465c-6.156,12.812 -7.576,23.954 -3.404,26.723c0.903,0.599 2.529,0.796 4.039,0.483c1.742,-0.358 3.958,-1.349 6.129,-2.725c0.652,-0.42 1.394,-0.894 1.653,-1.054c0.42,-0.269 0.518,-0.295 0.982,-0.269c0.84,0.063 1.323,0.545 1.376,1.385c0.063,0.921 -0.143,1.135 -2.519,2.636c-6.996,4.414 -12.741,4.342 -15.546,-0.214c-1.126,-1.823 -1.644,-4.325 -1.537,-7.532c0.107,-3.494 0.84,-7.094 2.341,-11.615c1.206,-3.636 2.35,-6.37 4.351,-10.391c0.715,-1.447 1.233,-2.591 1.206,-2.68c-0.027,-0.081 -0.33,-0.894 -0.688,-1.805c-0.679,-1.751 -1.921,-5.414 -2.421,-7.174c-0.232,-0.84 -0.331,-1.046 -0.456,-1.046c-0.303,0 -3.243,0.715 -4.538,1.108c-4.486,1.34 -7.443,2.859 -9.391,4.798c-0.714,0.706 -0.929,0.983 -1.25,1.635c-0.349,0.706 -0.385,0.858 -0.42,1.572c-0.027,0.626 0,0.921 0.143,1.403c0.589,1.939 2.76,4.074 5.887,5.79c1.314,0.723 1.859,1.188 1.948,1.679c0.197,1.01 -0.5,1.85 -1.519,1.85c-0.393,0 -0.598,-0.081 -1.519,-0.599c-4.395,-2.439 -6.977,-5.119 -7.826,-8.112c-0.259,-0.903 -0.277,-2.448 -0.045,-3.395c0.197,-0.822 0.813,-2.082 1.403,-2.859c2.448,-3.262 7.818,-5.96 15.117,-7.595c0.733,-0.161 1.349,-0.312 1.367,-0.339c0.027,-0.027 -0.054,-0.518 -0.179,-1.099c-0.643,-3.083 -0.965,-5.986 -0.974,-8.747c0,-2.814 0.242,-4.628 0.885,-6.567c1.072,-3.225 3.243,-5.271 6.067,-5.718c0.714,-0.107 2.251,-0.045 3.073,0.134Zm14.402,32.28c2.502,0.697 3.958,3.431 3.119,5.861c-0.411,1.198 -1.198,2.073 -2.395,2.672l-0.759,0.375l-1.18,0l-1.17,0l-0.786,-0.393c-2.145,-1.054 -3.136,-3.386 -2.377,-5.602c0.483,-1.385 1.733,-2.555 3.154,-2.939c0.661,-0.179 1.698,-0.161 2.394,0.026Z" style="fill:#2d323b;fill-rule:nonzero;"/><path d="M48.289,47.651c-0.17,0.009 -0.831,0.071 -1.474,0.125c-1.287,0.107 -4.718,0.518 -4.771,0.58c-0.09,0.081 1.152,4.039 1.938,6.183l0.402,1.108l0.152,-0.259c0.09,-0.134 0.554,-0.894 1.037,-1.68c0.991,-1.635 2.385,-3.752 3.368,-5.164l0.679,-0.956l-0.509,0.018c-0.277,0 -0.652,0.027 -0.822,0.045Z" style="fill:#2d323b;fill-rule:nonzero;"/></g></svg>