<svg id="Layer_1" data-name="Layer 1" xmlns="http://www.w3.org/2000/svg" xmlns:xlink="http://www.w3.org/1999/xlink" width="1023.62" height="990.06" viewBox="0 0 1023.62 990.06"><defs><linearGradient id="linear-gradient" x1="495.41" y1="803.4" x2="495.41" y2="128.72" gradientUnits="userSpaceOnUse"><stop offset="0" stop-color="#e6537c"/><stop offset="1" stop-color="#ffe8c7"/></linearGradient></defs><title>logo</title><g id="Icon"><g id="O_2" data-name="O&amp;2"><path d="M755.74,378.89a4.49,4.49,0,0,1-4.48-4.49V222.33a4.48,4.48,0,0,1,4.48-4.48H974.65V202.6a47.15,47.15,0,0,0-47.1-47.1H755.74a4.49,4.49,0,0,1-4.48-4.49V110.63a4.48,4.48,0,0,1,4.48-4.48H927.55A96.56,96.56,0,0,1,1024,202.6v60.11a4.48,4.48,0,0,1-4.49,4.48H800.61v62.35h174a49.17,49.17,0,0,1,49.1,44.42,4.48,4.48,0,0,1-4.46,4.93ZM990.44,512a496.53,496.53,0,0,0-9.51-96.51,7.37,7.37,0,0,0-7.23-5.93H951.11a7.37,7.37,0,0,0-7.22,8.87A460.16,460.16,0,0,1,953.6,512c0,252.65-205.54,458.19-458.19,458.19S37.22,764.68,37.22,512,242.76,53.84,495.41,53.84A459.15,459.15,0,0,1,709.74,107.1a7.37,7.37,0,0,0,10.82-6.51V75.91a7.37,7.37,0,0,0-4.06-6.58A488.6,488.6,0,0,0,495.41,17c-273,0-495,222.07-495,495s222.07,495,495,495S990.44,785,990.44,512Z" transform="translate(-0.38 -17)" style="fill:#3af5e9"/></g><path id="S" d="M499.5,845.25c-88.24,0-177.54-29.33-258.23-84.78-6-4.08-9.24-14.07-7.89-23.93s7-16.93,13.46-16.93H752.17c6.5,0,12.11,7.06,13.46,16.93s-2,19.85-7.89,23.93C677.05,815.92,587.75,845.25,499.5,845.25ZM194,647.67c-2.73,0-5.27-3-6.75-7.9-4.36-14.57-8.58-29.78-12.55-45.19a34.89,34.89,0,0,1,.12-17c1.44-5.22,4.06-8.44,6.89-16.1H817.83c2.83,7.66,5.45,10.88,6.89,16.1a34.77,34.77,0,0,1,.12,17c-4,15.41-8.19,30.62-12.55,45.19-1.47,4.93-4,7.9-6.75,7.9ZM162.11,497.22a7.39,7.39,0,0,1-7.35-7.85c11.66-178.76,161.29-318.79,340.65-318.79A341.32,341.32,0,0,1,718,253.14a7.36,7.36,0,0,1,2.56,5.59V374.41a35.22,35.22,0,0,0,35.18,35.18h59.88a7.35,7.35,0,0,1,7.06,5.27,340.84,340.84,0,0,1,13.37,74.5,7.37,7.37,0,0,1-7.35,7.86Z" transform="translate(-0.38 -17)" style="fill:url(#linear-gradient)"/></g></svg>